PathFileType	4	(X/Y/Z)	/Users/rkoike/Documents/python/sports2d/webcam_20250611_152632/webcam_20250611_152632_px_person00.trc
DataRate	CameraRate	NumFrames	NumMarkers	Units	OrigDataRate	OrigDataStartFrame	OrigNumFrames
30	30	11	22	m	30	1553	2485
Frame#	Time	Hip			RHip			RKnee			RAnkle			RBigToe			RSmallToe			RHeel			LHip			LKnee			LAnkle			LBigToe			LSmallToe			LHeel			Neck			Head			Nose			RShoulder			RElbow			RWrist			LShoulder			LElbow			LWrist			
		X1	Y1	Z1	X2	Y2	Z2	X3	Y3	Z3	X4	Y4	Z4	X5	Y5	Z5	X6	Y6	Z6	X7	Y7	Z7	X8	Y8	Z8	X9	Y9	Z9	X10	Y10	Z10	X11	Y11	Z11	X12	Y12	Z12	X13	Y13	Z13	X14	Y14	Z14	X15	Y15	Z15	X16	Y16	Z16	X17	Y17	Z17	X18	Y18	Z18	X19	Y19	Z19	X20	Y20	Z20	X21	Y21	Z21	X22	Y22	Z22
1553	51.78750670960815	717.3987579593055	472.93394003676065	0.0	1267.093871518914	645.0653615178712	0.0	1087.7272684981544	684.7862058369006	0.0	1150.7524088548746	589.270036321127	0.0	1525.4842622956535	-84.81441817402994	0.0	1421.7958985018265	67.90332028066503	0.0	1088.2808869644264	727.0980207781423	0.0	1239.3343723183846	642.643314441018	0.0	973.2099891153396	705.240427784337	0.0	1174.6420301602484	579.0941268275022	0.0			0.0			0.0			0.0	717.6399131318466	18.945495977728054	0.0	1217.901896342715	26.686560184948043	0.0	1192.2020207516016	67.12715025269759	0.0	1242.4297803160125	13.712242527653103	0.0	1240.579903498893	309.32746046634276	0.0	1170.9207216193981	565.0942785080509	0.0	1245.2102621003069	12.268659269346315	0.0	1258.0598279761841	315.63156258248176	0.0	1174.709314937531	569.657820271595	0.0
1554	51.8208534621578	715.3850988075053	472.8652722991978	0.0	1266.2398780895364	645.6298096552516	0.0	1123.440918579951	677.6743326071039	0.0	1150.7524508074225	589.2698892601219	0.0	1525.4130257473976	-84.81926558456584	0.0	1421.795898491569	67.90332026951181	0.0	1088.2808869644264	727.0980207781423	0.0	1241.6428767989323	642.5447258174049	0.0	1042.475324913123	700.6443154535996	0.0	1174.6391519328988	579.0975695106046	0.0			0.0			0.0			0.0	715.4549792823459	19.013783333904605	0.0	1216.5154810415197	22.23973348740242	0.0	1191.3290706969424	60.51603542036528	0.0	1242.9340426734839	13.159158173251319	0.0	1240.696208309942	309.5621076023614	0.0	1171.0507793781392	565.2721135096799	0.0	1246.291436441171	12.093490882856324	0.0	1258.807284540451	315.6778348521238	0.0	1175.832236830883	569.8435996352235	0.0
1555	51.854200214707454	714.31162685483	472.82866586048715	0.0	1266.8824484337163	637.8650249446672	0.0	1160.9623537651967	670.2362441586289	0.0	1150.752625382119	589.269687950988	0.0	1525.4732663755733	-84.81525827299296	0.0	1421.795898409373	67.90332036891564	0.0	1088.2808869644264	727.0980207781423	0.0	1237.6050424234625	635.139079715604	0.0	1113.357932679382	694.2488975981408	0.0	1174.6396056755523	579.0967973332124	0.0			0.0			0.0			0.0	714.2903479385615	19.050183311004933	0.0	1215.4620480283797	18.174217016775856	0.0	1194.992257872741	53.63399083609526	0.0	1241.0810514490427	13.022673122367719	0.0	1237.4374637153003	305.6774832969181	0.0	1166.8219435342617	558.0614354145221	0.0	1237.136350071939	12.69456130954062	0.0	1248.0028282688897	314.758204836337	0.0	1167.538113403897	568.2758863183782	0.0
1556	51.88754696725711	714.3092556814148	472.8285850011667	0.0	1282.9246247403198	621.1433468327809	0.0	1196.7705393722042	663.1710624752437	0.0	1150.7527405801368	589.2700590742645	0.0	1525.9563282948504	-84.78325850080677	0.0	1421.795898267851	67.90332061835676	0.0	1088.2808869644264	727.0980207781423	0.0	1243.3236942575968	620.5764496095775	0.0	1175.1343625657044	685.8755499473247	0.0	1174.6403319133797	579.0964135813647	0.0			0.0			0.0			0.0	714.2880424325903	19.050256994244076	0.0	1215.5660455237837	14.381368326917013	0.0	1206.3109696933782	50.58727852868722	0.0	1243.5495759335581	14.317865681895181	0.0	1233.263449368395	298.2409799009881	0.0	1162.5082443544345	550.2511039378658	0.0	1235.47838974184	15.072946953411611	0.0	1245.0316398837176	315.0886448042421	0.0	1164.6643489134688	566.8660816899406	0.0
1557	51.920893719806756	714.5185821420447	472.8357232372681	0.0	1299.8683033713753	604.9839631147556	0.0	1222.4705999936743	658.1073997647102	0.0	1150.752066446926	589.2717874817567	0.0	1526.559864175108	-84.74331201672001	0.0	1421.7958982811133	67.90332059904226	0.0	1088.2808869644264	727.0980207781423	0.0	1251.716697122683	607.0078805926399	0.0	1210.7367188106327	679.8223280247178	0.0	1174.640498956293	579.0982316866646	0.0			0.0			0.0			0.0	714.5149251430303	19.043164547872014	0.0	1216.133177192484	3.3708343093056654	0.0	1217.9471091029775	54.37527897588157	0.0	1246.5211701760095	15.850029224442718	0.0	1228.017532742464	290.5503577667438	0.0	1157.955217684755	541.6629210253386	0.0	1237.4987032303402	17.54936347320359	0.0	1246.4637924318886	315.8199347944365	0.0	1164.6743054876836	565.7867809244449	0.0
1558	51.95424047235641	714.5963983102857	472.83837684434866	0.0	1294.6928669224208	605.0074649673733	0.0	1233.2725410555859	655.9786181972954	0.0	1150.7502059798048	589.2731539227207	0.0	1525.2306374693073	-84.83127510472431	0.0	1421.7958989849433	67.9033192942821	0.0	1088.2808869644264	727.0980207781423	0.0	1251.2076840961442	607.4227033011545	0.0	1214.037079320212	681.1760816211911	0.0	1174.6404206496256	579.0994518031401	0.0			0.0			0.0			0.0	714.597525807725	19.04057179919038	0.0	1215.674047166177	-20.88076370344065	0.0	1217.6163295835631	64.22996118974726	0.0	1244.2634776081477	15.54404557225466	0.0	1222.9669283358758	288.6388297042514	0.0	1153.980820241444	534.07137161532	0.0	1236.5832697739756	17.346737210109232	0.0	1245.9802900258096	315.540746863721	0.0	1163.3640336006438	565.3915782521906	0.0
1559	51.98758722490606	714.5841641062123	472.8379596460713	0.0	1268.4949107567636	620.9148412164616	0.0	1233.7771553048053	655.8767025504683	0.0	1150.7501377507294	589.2669058534011	0.0	1519.639687613491	-85.2012506848518	0.0	1421.795900256495	67.90331692928422	0.0	1088.2808869644264	727.0980207781423	0.0	1241.547172784729	621.0547530273211	0.0	1198.78816337851	688.2716070636918	0.0	1174.6404268004203	579.0912027271951	0.0			0.0			0.0			0.0	714.582058596367	19.041041862662187	0.0	1214.1510415634211	-52.423885880417494	0.0	1205.527237256513	74.33482425596644	0.0	1237.1042154115207	13.440036315202821	0.0	1219.6195426189088	293.0452978250814	0.0	1151.5539667436487	529.4114089222347	0.0	1232.127116085533	14.529299767693393	0.0	1242.7161771025724	314.2797129670942	0.0	1160.5013332521744	565.6982480552396	0.0
1560	52.02093397745571	714.564405621306	472.8372858625762	0.0	1243.9530241872917	636.8707837154066	0.0	1231.8573851382143	656.2511196962685	0.0	1150.7595101069362	589.2481368098796	0.0	1511.5548992169388	-85.73624969882863	0.0	1421.7958990744073	67.90331912785634	0.0	1088.2808869644264	727.0980207781423	0.0	1231.562230145389	633.7634467499465	0.0	1184.3129911379665	694.037534281224	0.0	1174.6405612393967	579.0697533593112	0.0			0.0			0.0			0.0	714.5658499458872	19.041580301033036	0.0	1213.2552224079568	-77.33167565785884	0.0	1193.9829645297732	76.2284730466788	0.0	1230.104303715189	11.664541652921415	0.0	1218.6683229041619	298.6023380039315	0.0	1150.7414745665847	527.9290494482032	0.0	1227.5058249544034	11.860919811648783	0.0	1239.2987208805093	313.25886042572995	0.0	1158.0646059216072	566.1229258978019	0.0
1561	52.05428073000536	714.5594999941538	472.8371185760969	0.0	1235.7394342705284	642.2798248053163	0.0	1231.0866299895554	656.4059827629092	0.0	1150.777545285197	589.2446253137946	0.0	1505.963921878611	-86.10622371734085	0.0	1421.7958903525757	67.9033353541749	0.0	1088.2808869644264	727.0980207781423	0.0	1226.923586978877	636.1656903083623	0.0	1178.777003157425	694.1815255959541	0.0	1174.6404839624365	579.0717794608016	0.0			0.0			0.0			0.0	714.5815937427936	19.041216516484173	0.0	1214.36681902995	-88.27643048440358	0.0	1191.1875195834634	65.3862235549329	0.0	1226.3326366410722	11.676307356650725	0.0	1220.1640877701873	301.7573241140058	0.0	1151.2764601673225	529.2131083740938	0.0	1224.8398703451016	11.182625945679748	0.0	1237.4311658853585	313.2820896548055	0.0	1157.2282349416575	566.2130301439962	0.0
1562	52.087627482555014	714.5615562125806	472.83718869509886	0.0	1240.0254622659784	639.3571851663689	0.0	1231.2027242677736	656.4077450114513	0.0	1150.7637166498573	589.3338492547424	0.0	1504.6346645762264	-86.1941850667816	0.0	1421.7958799286328	67.90335474758902	0.0	1088.2808869644264	727.0980207781423	0.0	1226.4371832485667	630.5396027253787	0.0	1179.2377060588824	690.121640732759	0.0	1174.6395951287047	579.1852125044153	0.0			0.0			0.0			0.0	714.596869136507	19.04081846879243	0.0	1217.1396877275763	-89.59104630448202	0.0	1195.2054311270992	45.548455971401744	0.0	1224.949736412021	13.085748996892681	0.0	1223.2330539819573	302.9088825102115	0.0	1152.6256662345925	532.2098948881032	0.0	1223.6627649121317	12.05854364919396	0.0	1236.7577214051248	314.10134440242143	0.0	1157.5524569637855	565.9966088903601	0.0
1563	52.12097423510466	714.5632764398204	472.8372473554986	0.0	1247.6016126361353	634.6909016145983	0.0	1231.252383858432	656.4293857906805	0.0	1150.6455175671786	589.5201580268298	0.0	1505.2382688233984	-86.15424246744959	0.0	1421.7959047973736	67.90330848013382	0.0	1088.2808869644264	727.0980207781423	0.0	1227.2979639532134	623.3570535304405	0.0	1181.3156279112013	685.3570041362539	0.0	1174.6383502381523	579.3888795180584	0.0			0.0			0.0			0.0	714.5157675367574	19.042847924606125	0.0	1219.3828717755023	-87.34526015798188	0.0	1200.7794474305183	25.392381914419662	0.0	1224.665145889909	14.670390622347973	0.0	1226.5480899315626	303.3227219065637	0.0	1154.1113172752578	535.4173777927014	0.0	1223.157978708954	13.267504640786045	0.0	1236.6018681230523	315.04827813199614	0.0	1158.2491318998136	565.8320044767873	0.0
